<?xml version="1.0" encoding="UTF-8" standalone="no"?>
<!DOCTYPE svg PUBLIC "-//W3C//DTD SVG 1.1//EN"
 "http://www.w3.org/Graphics/SVG/1.1/DTD/svg11.dtd">
<!-- Generated by graphviz version 13.1.0 (20250701.0955)
 -->
<!-- Title: interface/driver_wt588e02b_interface.h Pages: 1 -->
<svg width="552pt" height="176pt"
 viewBox="0.00 0.00 552.00 176.00" xmlns="http://www.w3.org/2000/svg" xmlns:xlink="http://www.w3.org/1999/xlink">
<g id="graph0" class="graph" transform="scale(1 1) rotate(0) translate(4 172)">
<title>interface/driver_wt588e02b_interface.h</title>
<!-- Node1 -->
<g id="Node000001" class="node">
<title>Node1</title>
<g id="a_Node000001"><a xlink:title="driver wt588e02b interface header file">
<polygon fill="#999999" stroke="#666666" points="353.62,-168 220.62,-168 220.62,-136 353.62,-136 353.62,-168"/>
<text xml:space="preserve" text-anchor="start" x="228.62" y="-154.5" font-family="Helvetica,sans-Serif" font-size="10.00">interface/driver_wt588e02b</text>
<text xml:space="preserve" text-anchor="middle" x="287.12" y="-142.5" font-family="Helvetica,sans-Serif" font-size="10.00">_interface.h</text>
</a>
</g>
</g>
<!-- Node2 -->
<g id="Node000002" class="node">
<title>Node2</title>
<g id="a_Node000002"><a xlink:href="driver__wt588e02b__basic_8h.html" target="_top" xlink:title="driver wt588e02b basic header file">
<polygon fill="white" stroke="#666666" points="132.25,-100 0,-100 0,-68 132.25,-68 132.25,-100"/>
<text xml:space="preserve" text-anchor="start" x="8" y="-86.5" font-family="Helvetica,sans-Serif" font-size="10.00">example/driver_wt588e02b</text>
<text xml:space="preserve" text-anchor="middle" x="66.12" y="-74.5" font-family="Helvetica,sans-Serif" font-size="10.00">_basic.h</text>
</a>
</g>
</g>
<!-- Node1&#45;&gt;Node2 -->
<g id="edge1_Node000001_Node000002" class="edge">
<title>Node1&#45;&gt;Node2</title>
<g id="a_edge1_Node000001_Node000002"><a xlink:title=" ">
<path fill="none" stroke="#63b8ff" d="M224.66,-132.34C190.97,-122.28 149.9,-110.02 118,-100.49"/>
<polygon fill="#63b8ff" stroke="#63b8ff" points="223.28,-135.58 233.86,-135.09 225.28,-128.88 223.28,-135.58"/>
</a>
</g>
</g>
<!-- Node4 -->
<g id="Node000004" class="node">
<title>Node4</title>
<g id="a_Node000004"><a xlink:href="driver__wt588e02b__interface__template_8c.html" target="_top" xlink:title="driver wt588e02b interface template source file">
<polygon fill="white" stroke="#666666" points="283.62,-100 150.62,-100 150.62,-68 283.62,-68 283.62,-100"/>
<text xml:space="preserve" text-anchor="start" x="158.62" y="-86.5" font-family="Helvetica,sans-Serif" font-size="10.00">interface/driver_wt588e02b</text>
<text xml:space="preserve" text-anchor="middle" x="217.12" y="-74.5" font-family="Helvetica,sans-Serif" font-size="10.00">_interface_template.c</text>
</a>
</g>
</g>
<!-- Node1&#45;&gt;Node4 -->
<g id="edge3_Node000001_Node000004" class="edge">
<title>Node1&#45;&gt;Node4</title>
<g id="a_edge3_Node000001_Node000004"><a xlink:title=" ">
<path fill="none" stroke="#63b8ff" d="M262.72,-127.99C252.97,-118.79 242,-108.46 233.27,-100.22"/>
<polygon fill="#63b8ff" stroke="#63b8ff" points="260.11,-130.34 269.79,-134.65 264.91,-125.25 260.11,-130.34"/>
</a>
</g>
</g>
<!-- Node5 -->
<g id="Node000005" class="node">
<title>Node5</title>
<g id="a_Node000005"><a xlink:href="driver__wt588e02b__play__test_8h.html" target="_top" xlink:title="driver wt588e02b play test header file">
<polygon fill="white" stroke="#666666" points="414.12,-100 302.12,-100 302.12,-68 414.12,-68 414.12,-100"/>
<text xml:space="preserve" text-anchor="start" x="310.12" y="-86.5" font-family="Helvetica,sans-Serif" font-size="10.00">test/driver_wt588e02b</text>
<text xml:space="preserve" text-anchor="middle" x="358.12" y="-74.5" font-family="Helvetica,sans-Serif" font-size="10.00">_play_test.h</text>
</a>
</g>
</g>
<!-- Node1&#45;&gt;Node5 -->
<g id="edge4_Node000001_Node000005" class="edge">
<title>Node1&#45;&gt;Node5</title>
<g id="a_edge4_Node000001_Node000005"><a xlink:title=" ">
<path fill="none" stroke="#63b8ff" d="M311.88,-127.99C321.77,-118.79 332.89,-108.46 341.75,-100.22"/>
<polygon fill="#63b8ff" stroke="#63b8ff" points="309.64,-125.29 304.7,-134.66 314.41,-130.42 309.64,-125.29"/>
</a>
</g>
</g>
<!-- Node7 -->
<g id="Node000007" class="node">
<title>Node7</title>
<g id="a_Node000007"><a xlink:href="driver__wt588e02b__update__test_8h.html" target="_top" xlink:title="driver wt588e02b update test header file">
<polygon fill="white" stroke="#666666" points="544.12,-100 432.12,-100 432.12,-68 544.12,-68 544.12,-100"/>
<text xml:space="preserve" text-anchor="start" x="440.12" y="-86.5" font-family="Helvetica,sans-Serif" font-size="10.00">test/driver_wt588e02b</text>
<text xml:space="preserve" text-anchor="middle" x="488.12" y="-74.5" font-family="Helvetica,sans-Serif" font-size="10.00">_update_test.h</text>
</a>
</g>
</g>
<!-- Node1&#45;&gt;Node7 -->
<g id="edge6_Node000001_Node000007" class="edge">
<title>Node1&#45;&gt;Node7</title>
<g id="a_edge6_Node000001_Node000007"><a xlink:title=" ">
<path fill="none" stroke="#63b8ff" d="M345.14,-131.95C375.54,-121.97 412.31,-109.89 440.95,-100.49"/>
<polygon fill="#63b8ff" stroke="#63b8ff" points="344.1,-128.61 335.69,-135.05 346.28,-135.26 344.1,-128.61"/>
</a>
</g>
</g>
<!-- Node3 -->
<g id="Node000003" class="node">
<title>Node3</title>
<g id="a_Node000003"><a xlink:href="driver__wt588e02b__basic_8c.html" target="_top" xlink:title="driver wt588e02b basic source file">
<polygon fill="white" stroke="#666666" points="132.25,-32 0,-32 0,0 132.25,0 132.25,-32"/>
<text xml:space="preserve" text-anchor="start" x="8" y="-18.5" font-family="Helvetica,sans-Serif" font-size="10.00">example/driver_wt588e02b</text>
<text xml:space="preserve" text-anchor="middle" x="66.12" y="-6.5" font-family="Helvetica,sans-Serif" font-size="10.00">_basic.c</text>
</a>
</g>
</g>
<!-- Node2&#45;&gt;Node3 -->
<g id="edge2_Node000002_Node000003" class="edge">
<title>Node2&#45;&gt;Node3</title>
<g id="a_edge2_Node000002_Node000003"><a xlink:title=" ">
<path fill="none" stroke="#63b8ff" d="M66.12,-56.31C66.12,-48.12 66.12,-39.38 66.12,-32.22"/>
<polygon fill="#63b8ff" stroke="#63b8ff" points="62.63,-56.18 66.13,-66.18 69.63,-56.18 62.63,-56.18"/>
</a>
</g>
</g>
<!-- Node6 -->
<g id="Node000006" class="node">
<title>Node6</title>
<g id="a_Node000006"><a xlink:href="driver__wt588e02b__play__test_8c.html" target="_top" xlink:title="driver wt588e02b play test source file">
<polygon fill="white" stroke="#666666" points="414.12,-32 302.12,-32 302.12,0 414.12,0 414.12,-32"/>
<text xml:space="preserve" text-anchor="start" x="310.12" y="-18.5" font-family="Helvetica,sans-Serif" font-size="10.00">test/driver_wt588e02b</text>
<text xml:space="preserve" text-anchor="middle" x="358.12" y="-6.5" font-family="Helvetica,sans-Serif" font-size="10.00">_play_test.c</text>
</a>
</g>
</g>
<!-- Node5&#45;&gt;Node6 -->
<g id="edge5_Node000005_Node000006" class="edge">
<title>Node5&#45;&gt;Node6</title>
<g id="a_edge5_Node000005_Node000006"><a xlink:title=" ">
<path fill="none" stroke="#63b8ff" d="M358.12,-56.31C358.12,-48.12 358.12,-39.38 358.12,-32.22"/>
<polygon fill="#63b8ff" stroke="#63b8ff" points="354.63,-56.18 358.13,-66.18 361.63,-56.18 354.63,-56.18"/>
</a>
</g>
</g>
<!-- Node8 -->
<g id="Node000008" class="node">
<title>Node8</title>
<g id="a_Node000008"><a xlink:href="driver__wt588e02b__update__test_8c.html" target="_top" xlink:title="driver wt588e02b update test source file">
<polygon fill="white" stroke="#666666" points="544.12,-32 432.12,-32 432.12,0 544.12,0 544.12,-32"/>
<text xml:space="preserve" text-anchor="start" x="440.12" y="-18.5" font-family="Helvetica,sans-Serif" font-size="10.00">test/driver_wt588e02b</text>
<text xml:space="preserve" text-anchor="middle" x="488.12" y="-6.5" font-family="Helvetica,sans-Serif" font-size="10.00">_update_test.c</text>
</a>
</g>
</g>
<!-- Node7&#45;&gt;Node8 -->
<g id="edge7_Node000007_Node000008" class="edge">
<title>Node7&#45;&gt;Node8</title>
<g id="a_edge7_Node000007_Node000008"><a xlink:title=" ">
<path fill="none" stroke="#63b8ff" d="M488.12,-56.31C488.12,-48.12 488.12,-39.38 488.12,-32.22"/>
<polygon fill="#63b8ff" stroke="#63b8ff" points="484.63,-56.18 488.13,-66.18 491.63,-56.18 484.63,-56.18"/>
</a>
</g>
</g>
</g>
</svg>
