<?xml version="1.0" encoding="UTF-8" standalone="no"?>
<!DOCTYPE svg PUBLIC "-//W3C//DTD SVG 1.1//EN"
 "http://www.w3.org/Graphics/SVG/1.1/DTD/svg11.dtd">
<!-- Generated by graphviz version 13.1.0 (20250701.0955)
 -->
<!-- Title: wt588e02b_basic_play_loop_advance Pages: 1 -->
<svg width="269pt" height="128pt"
 viewBox="0.00 0.00 269.00 128.00" xmlns="http://www.w3.org/2000/svg" xmlns:xlink="http://www.w3.org/1999/xlink">
<g id="graph0" class="graph" transform="scale(1 1) rotate(0) translate(4 124)">
<title>wt588e02b_basic_play_loop_advance</title>
<!-- Node1 -->
<g id="Node000001" class="node">
<title>Node1</title>
<g id="a_Node000001"><a xlink:title="basic example play loop advance">
<polygon fill="#999999" stroke="#666666" points="115,-70 0,-70 0,-38 115,-38 115,-70"/>
<text xml:space="preserve" text-anchor="start" x="8" y="-56.5" font-family="Helvetica,sans-Serif" font-size="10.00">wt588e02b_basic_play</text>
<text xml:space="preserve" text-anchor="middle" x="57.5" y="-44.5" font-family="Helvetica,sans-Serif" font-size="10.00">_loop_advance</text>
</a>
</g>
</g>
<!-- Node2 -->
<g id="Node000002" class="node">
<title>Node2</title>
<g id="a_Node000002"><a xlink:href="group__wt588e02b__interface__driver.html#gaa105378badd24bf1390ccebb1403154f" target="_top" xlink:title="interface delay ms">
<polygon fill="white" stroke="#666666" points="258.88,-120 152.88,-120 152.88,-88 258.88,-88 258.88,-120"/>
<text xml:space="preserve" text-anchor="start" x="160.88" y="-106.5" font-family="Helvetica,sans-Serif" font-size="10.00">wt588e02b_interface</text>
<text xml:space="preserve" text-anchor="middle" x="205.88" y="-94.5" font-family="Helvetica,sans-Serif" font-size="10.00">_delay_ms</text>
</a>
</g>
</g>
<!-- Node1&#45;&gt;Node2 -->
<g id="edge1_Node000001_Node000002" class="edge">
<title>Node1&#45;&gt;Node2</title>
<g id="a_edge1_Node000001_Node000002"><a xlink:title=" ">
<path fill="none" stroke="#63b8ff" d="M106.43,-70.37C119.07,-74.69 132.85,-79.4 145.99,-83.89"/>
<polygon fill="#63b8ff" stroke="#63b8ff" points="144.81,-87.18 155.41,-87.1 147.07,-80.56 144.81,-87.18"/>
</a>
</g>
</g>
<!-- Node3 -->
<g id="Node000003" class="node">
<title>Node3</title>
<g id="a_Node000003"><a xlink:href="group__wt588e02b__basic__driver.html#ga7992ef25ca19cac06a08af6ea3860f9a" target="_top" xlink:title="play loop advance">
<polygon fill="white" stroke="#666666" points="260.75,-70 151,-70 151,-38 260.75,-38 260.75,-70"/>
<text xml:space="preserve" text-anchor="start" x="159" y="-56.5" font-family="Helvetica,sans-Serif" font-size="10.00">wt588e02b_play_loop</text>
<text xml:space="preserve" text-anchor="middle" x="205.88" y="-44.5" font-family="Helvetica,sans-Serif" font-size="10.00">_advance</text>
</a>
</g>
</g>
<!-- Node1&#45;&gt;Node3 -->
<g id="edge2_Node000001_Node000003" class="edge">
<title>Node1&#45;&gt;Node3</title>
<g id="a_edge2_Node000001_Node000003"><a xlink:title=" ">
<path fill="none" stroke="#63b8ff" d="M115.09,-54C123.08,-54 131.34,-54 139.47,-54"/>
<polygon fill="#63b8ff" stroke="#63b8ff" points="139.32,-57.5 149.32,-54 139.32,-50.5 139.32,-57.5"/>
</a>
</g>
</g>
<!-- Node4 -->
<g id="Node000004" class="node">
<title>Node4</title>
<g id="a_Node000004"><a xlink:href="group__wt588e02b__basic__driver.html#gaffabdd094b93315233aad0d43fb1647e" target="_top" xlink:title="stop audio">
<polygon fill="white" stroke="#666666" points="249.5,-20 162.25,-20 162.25,0 249.5,0 249.5,-20"/>
<text xml:space="preserve" text-anchor="middle" x="205.88" y="-6.5" font-family="Helvetica,sans-Serif" font-size="10.00">wt588e02b_stop</text>
</a>
</g>
</g>
<!-- Node1&#45;&gt;Node4 -->
<g id="edge3_Node000001_Node000004" class="edge">
<title>Node1&#45;&gt;Node4</title>
<g id="a_edge3_Node000001_Node000004"><a xlink:title=" ">
<path fill="none" stroke="#63b8ff" d="M113,-37.62C128.29,-33.02 144.74,-28.08 159.44,-23.66"/>
<polygon fill="#63b8ff" stroke="#63b8ff" points="160.27,-27.06 168.84,-20.83 158.26,-20.36 160.27,-27.06"/>
</a>
</g>
</g>
</g>
</svg>
