<?xml version="1.0" encoding="UTF-8" standalone="no"?>
<!DOCTYPE svg PUBLIC "-//W3C//DTD SVG 1.1//EN"
 "http://www.w3.org/Graphics/SVG/1.1/DTD/svg11.dtd">
<!-- Generated by graphviz version 13.1.0 (20250701.0955)
 -->
<!-- Title: wt588e02b_basic_play_list Pages: 1 -->
<svg width="283pt" height="116pt"
 viewBox="0.00 0.00 283.00 116.00" xmlns="http://www.w3.org/2000/svg" xmlns:xlink="http://www.w3.org/1999/xlink">
<g id="graph0" class="graph" transform="scale(1 1) rotate(0) translate(4 112)">
<title>wt588e02b_basic_play_list</title>
<!-- Node1 -->
<g id="Node000001" class="node">
<title>Node1</title>
<g id="a_Node000001"><a xlink:title="basic example play list">
<polygon fill="#999999" stroke="#666666" points="133,-58 0,-58 0,-38 133,-38 133,-58"/>
<text xml:space="preserve" text-anchor="middle" x="66.5" y="-44.5" font-family="Helvetica,sans-Serif" font-size="10.00">wt588e02b_basic_play_list</text>
</a>
</g>
</g>
<!-- Node2 -->
<g id="Node000002" class="node">
<title>Node2</title>
<g id="a_Node000002"><a xlink:href="group__wt588e02b__interface__driver.html#gaa105378badd24bf1390ccebb1403154f" target="_top" xlink:title="interface delay ms">
<polygon fill="white" stroke="#666666" points="275,-108 169,-108 169,-76 275,-76 275,-108"/>
<text xml:space="preserve" text-anchor="start" x="177" y="-94.5" font-family="Helvetica,sans-Serif" font-size="10.00">wt588e02b_interface</text>
<text xml:space="preserve" text-anchor="middle" x="222" y="-82.5" font-family="Helvetica,sans-Serif" font-size="10.00">_delay_ms</text>
</a>
</g>
</g>
<!-- Node1&#45;&gt;Node2 -->
<g id="edge1_Node000001_Node000002" class="edge">
<title>Node1&#45;&gt;Node2</title>
<g id="a_edge1_Node000001_Node000002"><a xlink:title=" ">
<path fill="none" stroke="#63b8ff" d="M103.88,-58.43C119.96,-63.04 139.34,-68.59 157.68,-73.85"/>
<polygon fill="#63b8ff" stroke="#63b8ff" points="156.58,-77.18 167.16,-76.57 158.51,-70.45 156.58,-77.18"/>
</a>
</g>
</g>
<!-- Node3 -->
<g id="Node000003" class="node">
<title>Node3</title>
<g id="a_Node000003"><a xlink:href="group__wt588e02b__basic__driver.html#gae3b94035e03a637b23fd4f9686366316" target="_top" xlink:title="play list">
<polygon fill="white" stroke="#666666" points="274.25,-58 169.75,-58 169.75,-38 274.25,-38 274.25,-58"/>
<text xml:space="preserve" text-anchor="middle" x="222" y="-44.5" font-family="Helvetica,sans-Serif" font-size="10.00">wt588e02b_play_list</text>
</a>
</g>
</g>
<!-- Node1&#45;&gt;Node3 -->
<g id="edge2_Node000001_Node000003" class="edge">
<title>Node1&#45;&gt;Node3</title>
<g id="a_edge2_Node000001_Node000003"><a xlink:title=" ">
<path fill="none" stroke="#63b8ff" d="M133.49,-48C141.66,-48 150,-48 158.13,-48"/>
<polygon fill="#63b8ff" stroke="#63b8ff" points="157.92,-51.5 167.92,-48 157.92,-44.5 157.92,-51.5"/>
</a>
</g>
</g>
<!-- Node4 -->
<g id="Node000004" class="node">
<title>Node4</title>
<g id="a_Node000004"><a xlink:href="group__wt588e02b__basic__driver.html#gaffabdd094b93315233aad0d43fb1647e" target="_top" xlink:title="stop audio">
<polygon fill="white" stroke="#666666" points="265.62,-20 178.38,-20 178.38,0 265.62,0 265.62,-20"/>
<text xml:space="preserve" text-anchor="middle" x="222" y="-6.5" font-family="Helvetica,sans-Serif" font-size="10.00">wt588e02b_stop</text>
</a>
</g>
</g>
<!-- Node1&#45;&gt;Node4 -->
<g id="edge3_Node000001_Node000004" class="edge">
<title>Node1&#45;&gt;Node4</title>
<g id="a_edge3_Node000001_Node000004"><a xlink:title=" ">
<path fill="none" stroke="#63b8ff" d="M109.85,-37.52C127.72,-33.09 148.72,-27.89 167.63,-23.21"/>
<polygon fill="#63b8ff" stroke="#63b8ff" points="168.45,-26.61 177.32,-20.81 166.77,-19.82 168.45,-26.61"/>
</a>
</g>
</g>
</g>
</svg>
