<?xml version="1.0" encoding="UTF-8" standalone="no"?>
<!DOCTYPE svg PUBLIC "-//W3C//DTD SVG 1.1//EN"
 "http://www.w3.org/Graphics/SVG/1.1/DTD/svg11.dtd">
<!-- Generated by graphviz version 13.1.0 (20250701.0955)
 -->
<!-- Title: wt588e02b_basic_poll Pages: 1 -->
<svg width="277pt" height="78pt"
 viewBox="0.00 0.00 277.00 78.00" xmlns="http://www.w3.org/2000/svg" xmlns:xlink="http://www.w3.org/1999/xlink">
<g id="graph0" class="graph" transform="scale(1 1) rotate(0) translate(4 74)">
<title>wt588e02b_basic_poll</title>
<!-- Node1 -->
<g id="Node000001" class="node">
<title>Node1</title>
<g id="a_Node000001"><a xlink:title="basic example poll">
<polygon fill="#999999" stroke="#666666" points="112,-48 0,-48 0,-28 112,-28 112,-48"/>
<text xml:space="preserve" text-anchor="middle" x="56" y="-34.5" font-family="Helvetica,sans-Serif" font-size="10.00">wt588e02b_basic_poll</text>
</a>
</g>
</g>
<!-- Node2 -->
<g id="Node000002" class="node">
<title>Node2</title>
<g id="a_Node000002"><a xlink:href="group__wt588e02b__basic__driver.html#ga7699996ee3d8d82114dcc79c513190f4" target="_top" xlink:title="check chip busy">
<polygon fill="white" stroke="#666666" points="269,-70 148,-70 148,-50 269,-50 269,-70"/>
<text xml:space="preserve" text-anchor="middle" x="208.5" y="-56.5" font-family="Helvetica,sans-Serif" font-size="10.00">wt588e02b_check_busy</text>
</a>
</g>
</g>
<!-- Node1&#45;&gt;Node2 -->
<g id="edge1_Node000001_Node000002" class="edge">
<title>Node1&#45;&gt;Node2</title>
<g id="a_edge1_Node000001_Node000002"><a xlink:title=" ">
<path fill="none" stroke="#63b8ff" d="M112.19,-46.07C120,-47.21 128.12,-48.4 136.18,-49.57"/>
<polygon fill="#63b8ff" stroke="#63b8ff" points="135.6,-53.03 146.01,-51.01 136.62,-46.1 135.6,-53.03"/>
</a>
</g>
</g>
<!-- Node3 -->
<g id="Node000003" class="node">
<title>Node3</title>
<g id="a_Node000003"><a xlink:href="group__wt588e02b__interface__driver.html#gaa105378badd24bf1390ccebb1403154f" target="_top" xlink:title="interface delay ms">
<polygon fill="white" stroke="#666666" points="261.5,-32 155.5,-32 155.5,0 261.5,0 261.5,-32"/>
<text xml:space="preserve" text-anchor="start" x="163.5" y="-18.5" font-family="Helvetica,sans-Serif" font-size="10.00">wt588e02b_interface</text>
<text xml:space="preserve" text-anchor="middle" x="208.5" y="-6.5" font-family="Helvetica,sans-Serif" font-size="10.00">_delay_ms</text>
</a>
</g>
</g>
<!-- Node1&#45;&gt;Node3 -->
<g id="edge2_Node000001_Node000003" class="edge">
<title>Node1&#45;&gt;Node3</title>
<g id="a_edge2_Node000001_Node000003"><a xlink:title=" ">
<path fill="none" stroke="#63b8ff" d="M112.19,-29.93C122.54,-28.42 133.43,-26.83 144.01,-25.28"/>
<polygon fill="#63b8ff" stroke="#63b8ff" points="144.44,-28.76 153.83,-23.85 143.43,-21.83 144.44,-28.76"/>
</a>
</g>
</g>
</g>
</svg>
