<?xml version="1.0" encoding="UTF-8" standalone="no"?>
<!DOCTYPE svg PUBLIC "-//W3C//DTD SVG 1.1//EN"
 "http://www.w3.org/Graphics/SVG/1.1/DTD/svg11.dtd">
<!-- Generated by graphviz version 13.1.0 (20250701.0955)
 -->
<!-- Title: wt588e02b_basic_play_loop Pages: 1 -->
<svg width="292pt" height="116pt"
 viewBox="0.00 0.00 292.00 116.00" xmlns="http://www.w3.org/2000/svg" xmlns:xlink="http://www.w3.org/1999/xlink">
<g id="graph0" class="graph" transform="scale(1 1) rotate(0) translate(4 112)">
<title>wt588e02b_basic_play_loop</title>
<!-- Node1 -->
<g id="Node000001" class="node">
<title>Node1</title>
<g id="a_Node000001"><a xlink:title="basic example play loop">
<polygon fill="#999999" stroke="#666666" points="138.25,-58 0,-58 0,-38 138.25,-38 138.25,-58"/>
<text xml:space="preserve" text-anchor="middle" x="69.12" y="-44.5" font-family="Helvetica,sans-Serif" font-size="10.00">wt588e02b_basic_play_loop</text>
</a>
</g>
</g>
<!-- Node2 -->
<g id="Node000002" class="node">
<title>Node2</title>
<g id="a_Node000002"><a xlink:href="group__wt588e02b__interface__driver.html#gaa105378badd24bf1390ccebb1403154f" target="_top" xlink:title="interface delay ms">
<polygon fill="white" stroke="#666666" points="282.12,-108 176.12,-108 176.12,-76 282.12,-76 282.12,-108"/>
<text xml:space="preserve" text-anchor="start" x="184.12" y="-94.5" font-family="Helvetica,sans-Serif" font-size="10.00">wt588e02b_interface</text>
<text xml:space="preserve" text-anchor="middle" x="229.12" y="-82.5" font-family="Helvetica,sans-Serif" font-size="10.00">_delay_ms</text>
</a>
</g>
</g>
<!-- Node1&#45;&gt;Node2 -->
<g id="edge1_Node000001_Node000002" class="edge">
<title>Node1&#45;&gt;Node2</title>
<g id="a_edge1_Node000001_Node000002"><a xlink:title=" ">
<path fill="none" stroke="#63b8ff" d="M107.57,-58.43C124.66,-63.19 145.38,-68.96 164.78,-74.36"/>
<polygon fill="#63b8ff" stroke="#63b8ff" points="163.68,-77.69 174.25,-77 165.55,-70.94 163.68,-77.69"/>
</a>
</g>
</g>
<!-- Node3 -->
<g id="Node000003" class="node">
<title>Node3</title>
<g id="a_Node000003"><a xlink:href="group__wt588e02b__basic__driver.html#ga5826a224487c3b0210f745cf33e9f591" target="_top" xlink:title="play loop">
<polygon fill="white" stroke="#666666" points="284,-58 174.25,-58 174.25,-38 284,-38 284,-58"/>
<text xml:space="preserve" text-anchor="middle" x="229.12" y="-44.5" font-family="Helvetica,sans-Serif" font-size="10.00">wt588e02b_play_loop</text>
</a>
</g>
</g>
<!-- Node1&#45;&gt;Node3 -->
<g id="edge2_Node000001_Node000003" class="edge">
<title>Node1&#45;&gt;Node3</title>
<g id="a_edge2_Node000001_Node000003"><a xlink:title=" ">
<path fill="none" stroke="#63b8ff" d="M138.51,-48C146.46,-48 154.57,-48 162.49,-48"/>
<polygon fill="#63b8ff" stroke="#63b8ff" points="162.4,-51.5 172.4,-48 162.4,-44.5 162.4,-51.5"/>
</a>
</g>
</g>
<!-- Node4 -->
<g id="Node000004" class="node">
<title>Node4</title>
<g id="a_Node000004"><a xlink:href="group__wt588e02b__basic__driver.html#gaffabdd094b93315233aad0d43fb1647e" target="_top" xlink:title="stop audio">
<polygon fill="white" stroke="#666666" points="272.75,-20 185.5,-20 185.5,0 272.75,0 272.75,-20"/>
<text xml:space="preserve" text-anchor="middle" x="229.12" y="-6.5" font-family="Helvetica,sans-Serif" font-size="10.00">wt588e02b_stop</text>
</a>
</g>
</g>
<!-- Node1&#45;&gt;Node4 -->
<g id="edge3_Node000001_Node000004" class="edge">
<title>Node1&#45;&gt;Node4</title>
<g id="a_edge3_Node000001_Node000004"><a xlink:title=" ">
<path fill="none" stroke="#63b8ff" d="M113.72,-37.52C132.44,-33.01 154.5,-27.71 174.23,-22.96"/>
<polygon fill="#63b8ff" stroke="#63b8ff" points="174.85,-26.41 183.75,-20.67 173.21,-19.61 174.85,-26.41"/>
</a>
</g>
</g>
</g>
</svg>
