<?xml version="1.0" encoding="UTF-8" standalone="no"?>
<!DOCTYPE svg PUBLIC "-//W3C//DTD SVG 1.1//EN"
 "http://www.w3.org/Graphics/SVG/1.1/DTD/svg11.dtd">
<!-- Generated by graphviz version 13.1.0 (20250701.0955)
 -->
<!-- Title: wt588e02b_basic_play Pages: 1 -->
<svg width="265pt" height="116pt"
 viewBox="0.00 0.00 265.00 116.00" xmlns="http://www.w3.org/2000/svg" xmlns:xlink="http://www.w3.org/1999/xlink">
<g id="graph0" class="graph" transform="scale(1 1) rotate(0) translate(4 112)">
<title>wt588e02b_basic_play</title>
<!-- Node1 -->
<g id="Node000001" class="node">
<title>Node1</title>
<g id="a_Node000001"><a xlink:title="basic example play">
<polygon fill="#999999" stroke="#666666" points="115,-58 0,-58 0,-38 115,-38 115,-58"/>
<text xml:space="preserve" text-anchor="middle" x="57.5" y="-44.5" font-family="Helvetica,sans-Serif" font-size="10.00">wt588e02b_basic_play</text>
</a>
</g>
</g>
<!-- Node2 -->
<g id="Node000002" class="node">
<title>Node2</title>
<g id="a_Node000002"><a xlink:href="group__wt588e02b__interface__driver.html#gaa105378badd24bf1390ccebb1403154f" target="_top" xlink:title="interface delay ms">
<polygon fill="white" stroke="#666666" points="257,-108 151,-108 151,-76 257,-76 257,-108"/>
<text xml:space="preserve" text-anchor="start" x="159" y="-94.5" font-family="Helvetica,sans-Serif" font-size="10.00">wt588e02b_interface</text>
<text xml:space="preserve" text-anchor="middle" x="204" y="-82.5" font-family="Helvetica,sans-Serif" font-size="10.00">_delay_ms</text>
</a>
</g>
</g>
<!-- Node1&#45;&gt;Node2 -->
<g id="edge1_Node000001_Node000002" class="edge">
<title>Node1&#45;&gt;Node2</title>
<g id="a_edge1_Node000001_Node000002"><a xlink:title=" ">
<path fill="none" stroke="#63b8ff" d="M92.74,-58.43C106.92,-62.74 123.81,-67.89 140.07,-72.84"/>
<polygon fill="#63b8ff" stroke="#63b8ff" points="138.6,-76.05 149.18,-75.61 140.63,-69.35 138.6,-76.05"/>
</a>
</g>
</g>
<!-- Node3 -->
<g id="Node000003" class="node">
<title>Node3</title>
<g id="a_Node000003"><a xlink:href="group__wt588e02b__basic__driver.html#ga2687bbc571cc6a23def14497fd17e58e" target="_top" xlink:title="play audio">
<polygon fill="white" stroke="#666666" points="247.25,-58 160.75,-58 160.75,-38 247.25,-38 247.25,-58"/>
<text xml:space="preserve" text-anchor="middle" x="204" y="-44.5" font-family="Helvetica,sans-Serif" font-size="10.00">wt588e02b_play</text>
</a>
</g>
</g>
<!-- Node1&#45;&gt;Node3 -->
<g id="edge2_Node000001_Node000003" class="edge">
<title>Node1&#45;&gt;Node3</title>
<g id="a_edge2_Node000001_Node000003"><a xlink:title=" ">
<path fill="none" stroke="#63b8ff" d="M115.2,-48C126.35,-48 138.01,-48 149.07,-48"/>
<polygon fill="#63b8ff" stroke="#63b8ff" points="148.81,-51.5 158.81,-48 148.81,-44.5 148.81,-51.5"/>
</a>
</g>
</g>
<!-- Node4 -->
<g id="Node000004" class="node">
<title>Node4</title>
<g id="a_Node000004"><a xlink:href="group__wt588e02b__basic__driver.html#gaffabdd094b93315233aad0d43fb1647e" target="_top" xlink:title="stop audio">
<polygon fill="white" stroke="#666666" points="247.62,-20 160.38,-20 160.38,0 247.62,0 247.62,-20"/>
<text xml:space="preserve" text-anchor="middle" x="204" y="-6.5" font-family="Helvetica,sans-Serif" font-size="10.00">wt588e02b_stop</text>
</a>
</g>
</g>
<!-- Node1&#45;&gt;Node4 -->
<g id="edge3_Node000001_Node000004" class="edge">
<title>Node1&#45;&gt;Node4</title>
<g id="a_edge3_Node000001_Node000004"><a xlink:title=" ">
<path fill="none" stroke="#63b8ff" d="M98.37,-37.52C115.03,-33.13 134.59,-27.99 152.26,-23.34"/>
<polygon fill="#63b8ff" stroke="#63b8ff" points="153.02,-26.76 161.8,-20.83 151.24,-19.99 153.02,-26.76"/>
</a>
</g>
</g>
</g>
</svg>
