<?xml version="1.0" encoding="UTF-8" standalone="no"?>
<!DOCTYPE svg PUBLIC "-//W3C//DTD SVG 1.1//EN"
 "http://www.w3.org/Graphics/SVG/1.1/DTD/svg11.dtd">
<!-- Generated by graphviz version 13.1.0 (20250701.0955)
 -->
<!-- Title: wt588e02b_basic_init Pages: 1 -->
<svg width="260pt" height="1004pt"
 viewBox="0.00 0.00 260.00 1004.00" xmlns="http://www.w3.org/2000/svg" xmlns:xlink="http://www.w3.org/1999/xlink">
<g id="graph0" class="graph" transform="scale(1 1) rotate(0) translate(4 1000)">
<title>wt588e02b_basic_init</title>
<!-- Node1 -->
<g id="Node000001" class="node">
<title>Node1</title>
<g id="a_Node000001"><a xlink:title="basic example init">
<polygon fill="#999999" stroke="#666666" points="109.75,-514 0,-514 0,-494 109.75,-494 109.75,-514"/>
<text xml:space="preserve" text-anchor="middle" x="54.88" y="-500.5" font-family="Helvetica,sans-Serif" font-size="10.00">wt588e02b_basic_init</text>
</a>
</g>
</g>
<!-- Node2 -->
<g id="Node000002" class="node">
<title>Node2</title>
<g id="a_Node000002"><a xlink:href="group__wt588e02b__basic__driver.html#ga59d2bfc1f078fc3e1b8315d16d9cbd03" target="_top" xlink:title="deinit the chip">
<polygon fill="white" stroke="#666666" points="244.62,-996 152.88,-996 152.88,-976 244.62,-976 244.62,-996"/>
<text xml:space="preserve" text-anchor="middle" x="198.75" y="-982.5" font-family="Helvetica,sans-Serif" font-size="10.00">wt588e02b_deinit</text>
</a>
</g>
</g>
<!-- Node1&#45;&gt;Node2 -->
<g id="edge1_Node000001_Node000002" class="edge">
<title>Node1&#45;&gt;Node2</title>
<g id="a_edge1_Node000001_Node000002"><a xlink:title=" ">
<path fill="none" stroke="#63b8ff" d="M56.52,-514.33C60.59,-575.96 84.38,-895.04 145.75,-967 146.31,-967.66 146.9,-968.29 147.51,-968.91"/>
<polygon fill="#63b8ff" stroke="#63b8ff" points="145.19,-971.54 155.27,-974.79 149.42,-965.96 145.19,-971.54"/>
</a>
</g>
</g>
<!-- Node3 -->
<g id="Node000003" class="node">
<title>Node3</title>
<g id="a_Node000003"><a xlink:href="group__wt588e02b__basic__driver.html#gac5b9abbe760103198b8e991058666eef" target="_top" xlink:title="initialize the chip">
<polygon fill="white" stroke="#666666" points="239.38,-958 158.12,-958 158.12,-938 239.38,-938 239.38,-958"/>
<text xml:space="preserve" text-anchor="middle" x="198.75" y="-944.5" font-family="Helvetica,sans-Serif" font-size="10.00">wt588e02b_init</text>
</a>
</g>
</g>
<!-- Node1&#45;&gt;Node3 -->
<g id="edge2_Node000001_Node000003" class="edge">
<title>Node1&#45;&gt;Node3</title>
<g id="a_edge2_Node000001_Node000003"><a xlink:title=" ">
<path fill="none" stroke="#63b8ff" d="M56.71,-514.23C61.66,-572.64 88.93,-863.48 145.75,-929 146.58,-929.96 147.47,-930.88 148.4,-931.74"/>
<polygon fill="#63b8ff" stroke="#63b8ff" points="146.38,-934.6 156.57,-937.49 150.41,-928.87 146.38,-934.6"/>
</a>
</g>
</g>
<!-- Node4 -->
<g id="Node000004" class="node">
<title>Node4</title>
<g id="a_Node000004"><a xlink:href="group__wt588e02b__interface__driver.html#ga0e622aa8c5a60d0c5f1e0b49a51cf640" target="_top" xlink:title="interface bin read">
<polygon fill="white" stroke="#666666" points="251.75,-920 145.75,-920 145.75,-888 251.75,-888 251.75,-920"/>
<text xml:space="preserve" text-anchor="start" x="153.75" y="-906.5" font-family="Helvetica,sans-Serif" font-size="10.00">wt588e02b_interface</text>
<text xml:space="preserve" text-anchor="middle" x="198.75" y="-894.5" font-family="Helvetica,sans-Serif" font-size="10.00">_bin_read</text>
</a>
</g>
</g>
<!-- Node1&#45;&gt;Node4 -->
<g id="edge3_Node000001_Node000004" class="edge">
<title>Node1&#45;&gt;Node4</title>
<g id="a_edge3_Node000001_Node000004"><a xlink:title=" ">
<path fill="none" stroke="#63b8ff" d="M57.15,-514.35C63.98,-568.55 97.82,-819.6 145.75,-879 146.08,-879.41 146.42,-879.81 146.77,-880.21"/>
<polygon fill="#63b8ff" stroke="#63b8ff" points="144.13,-882.55 153.9,-886.65 148.82,-877.35 144.13,-882.55"/>
</a>
</g>
</g>
<!-- Node5 -->
<g id="Node000005" class="node">
<title>Node5</title>
<g id="a_Node000005"><a xlink:href="group__wt588e02b__interface__driver.html#gad7b22a43af2459640cf249d728f2b4e0" target="_top" xlink:title="interface bin read deinit">
<polygon fill="white" stroke="#666666" points="251.75,-870 145.75,-870 145.75,-838 251.75,-838 251.75,-870"/>
<text xml:space="preserve" text-anchor="start" x="153.75" y="-856.5" font-family="Helvetica,sans-Serif" font-size="10.00">wt588e02b_interface</text>
<text xml:space="preserve" text-anchor="middle" x="198.75" y="-844.5" font-family="Helvetica,sans-Serif" font-size="10.00">_bin_read_deinit</text>
</a>
</g>
</g>
<!-- Node1&#45;&gt;Node5 -->
<g id="edge4_Node000001_Node000005" class="edge">
<title>Node1&#45;&gt;Node5</title>
<g id="a_edge4_Node000001_Node000005"><a xlink:title=" ">
<path fill="none" stroke="#63b8ff" d="M55.8,-514.4C56.02,-558.11 62.4,-729.28 145.75,-829 146.09,-829.4 146.43,-829.8 146.79,-830.19"/>
<polygon fill="#63b8ff" stroke="#63b8ff" points="144.2,-832.58 154.01,-836.56 148.83,-827.32 144.2,-832.58"/>
</a>
</g>
</g>
<!-- Node6 -->
<g id="Node000006" class="node">
<title>Node6</title>
<g id="a_Node000006"><a xlink:href="group__wt588e02b__interface__driver.html#gae8a50808168d3b82cc490d443dd6ca49" target="_top" xlink:title="interface bin read init">
<polygon fill="white" stroke="#666666" points="251.75,-820 145.75,-820 145.75,-788 251.75,-788 251.75,-820"/>
<text xml:space="preserve" text-anchor="start" x="153.75" y="-806.5" font-family="Helvetica,sans-Serif" font-size="10.00">wt588e02b_interface</text>
<text xml:space="preserve" text-anchor="middle" x="198.75" y="-794.5" font-family="Helvetica,sans-Serif" font-size="10.00">_bin_read_init</text>
</a>
</g>
</g>
<!-- Node1&#45;&gt;Node6 -->
<g id="edge5_Node000001_Node000006" class="edge">
<title>Node1&#45;&gt;Node6</title>
<g id="a_edge5_Node000001_Node000006"><a xlink:title=" ">
<path fill="none" stroke="#63b8ff" d="M56.42,-514.39C59.03,-553.83 73.28,-696.25 145.75,-779 146.1,-779.41 146.47,-779.8 146.84,-780.2"/>
<polygon fill="#63b8ff" stroke="#63b8ff" points="144.51,-782.82 154.4,-786.63 149.05,-777.48 144.51,-782.82"/>
</a>
</g>
</g>
<!-- Node7 -->
<g id="Node000007" class="node">
<title>Node7</title>
<g id="a_Node000007"><a xlink:href="group__wt588e02b__interface__driver.html#ga30b4858900e60481fe541f8cbfd23b37" target="_top" xlink:title="interface cs gpio init">
<polygon fill="white" stroke="#666666" points="251.75,-770 145.75,-770 145.75,-738 251.75,-738 251.75,-770"/>
<text xml:space="preserve" text-anchor="start" x="153.75" y="-756.5" font-family="Helvetica,sans-Serif" font-size="10.00">wt588e02b_interface</text>
<text xml:space="preserve" text-anchor="middle" x="198.75" y="-744.5" font-family="Helvetica,sans-Serif" font-size="10.00">_cs_gpio_deinit</text>
</a>
</g>
</g>
<!-- Node1&#45;&gt;Node7 -->
<g id="edge6_Node000001_Node000007" class="edge">
<title>Node1&#45;&gt;Node7</title>
<g id="a_edge6_Node000001_Node000007"><a xlink:title=" ">
<path fill="none" stroke="#63b8ff" d="M57.3,-514.38C62.58,-549.13 84.02,-662.91 145.75,-729 146.22,-729.5 146.7,-730 147.2,-730.48"/>
<polygon fill="#63b8ff" stroke="#63b8ff" points="144.86,-733.09 154.84,-736.64 149.25,-727.64 144.86,-733.09"/>
</a>
</g>
</g>
<!-- Node8 -->
<g id="Node000008" class="node">
<title>Node8</title>
<g id="a_Node000008"><a xlink:href="group__wt588e02b__interface__driver.html#ga26fdd902224849c55fa865a70d07ff4a" target="_top" xlink:title="interface cs gpio init">
<polygon fill="white" stroke="#666666" points="251.75,-720 145.75,-720 145.75,-688 251.75,-688 251.75,-720"/>
<text xml:space="preserve" text-anchor="start" x="153.75" y="-706.5" font-family="Helvetica,sans-Serif" font-size="10.00">wt588e02b_interface</text>
<text xml:space="preserve" text-anchor="middle" x="198.75" y="-694.5" font-family="Helvetica,sans-Serif" font-size="10.00">_cs_gpio_init</text>
</a>
</g>
</g>
<!-- Node1&#45;&gt;Node8 -->
<g id="edge7_Node000001_Node000008" class="edge">
<title>Node1&#45;&gt;Node8</title>
<g id="a_edge7_Node000001_Node000008"><a xlink:title=" ">
<path fill="none" stroke="#63b8ff" d="M58.68,-514.49C67.07,-544.07 94.62,-629.19 145.75,-679 146.37,-679.6 147.01,-680.19 147.66,-680.77"/>
<polygon fill="#63b8ff" stroke="#63b8ff" points="145.52,-683.55 155.63,-686.72 149.71,-677.93 145.52,-683.55"/>
</a>
</g>
</g>
<!-- Node9 -->
<g id="Node000009" class="node">
<title>Node9</title>
<g id="a_Node000009"><a xlink:href="group__wt588e02b__interface__driver.html#ga33ee0d65651dd3c0890bc19cb82e4fd8" target="_top" xlink:title="interface cs gpio write">
<polygon fill="white" stroke="#666666" points="251.75,-670 145.75,-670 145.75,-638 251.75,-638 251.75,-670"/>
<text xml:space="preserve" text-anchor="start" x="153.75" y="-656.5" font-family="Helvetica,sans-Serif" font-size="10.00">wt588e02b_interface</text>
<text xml:space="preserve" text-anchor="middle" x="198.75" y="-644.5" font-family="Helvetica,sans-Serif" font-size="10.00">_cs_gpio_write</text>
</a>
</g>
</g>
<!-- Node1&#45;&gt;Node9 -->
<g id="edge8_Node000001_Node000009" class="edge">
<title>Node1&#45;&gt;Node9</title>
<g id="a_edge8_Node000001_Node000009"><a xlink:title=" ">
<path fill="none" stroke="#63b8ff" d="M61.02,-514.4C72.97,-537.68 104.79,-594.65 145.75,-629 146.69,-629.79 147.66,-630.56 148.65,-631.31"/>
<polygon fill="#63b8ff" stroke="#63b8ff" points="146.58,-634.14 156.85,-636.75 150.45,-628.3 146.58,-634.14"/>
</a>
</g>
</g>
<!-- Node10 -->
<g id="Node000010" class="node">
<title>Node10</title>
<g id="a_Node000010"><a xlink:href="group__wt588e02b__interface__driver.html#ga06e53e890510fc29c8ceaaa45fd0a4e3" target="_top" xlink:title="interface print format data">
<polygon fill="white" stroke="#666666" points="251.75,-620 145.75,-620 145.75,-588 251.75,-588 251.75,-620"/>
<text xml:space="preserve" text-anchor="start" x="153.75" y="-606.5" font-family="Helvetica,sans-Serif" font-size="10.00">wt588e02b_interface</text>
<text xml:space="preserve" text-anchor="middle" x="198.75" y="-594.5" font-family="Helvetica,sans-Serif" font-size="10.00">_debug_print</text>
</a>
</g>
</g>
<!-- Node1&#45;&gt;Node10 -->
<g id="edge9_Node000001_Node000010" class="edge">
<title>Node1&#45;&gt;Node10</title>
<g id="a_edge9_Node000001_Node000010"><a xlink:title=" ">
<path fill="none" stroke="#63b8ff" d="M66.53,-514.41C82.7,-529.84 114.82,-559.1 145.75,-579 147.37,-580.04 149.04,-581.07 150.75,-582.08"/>
<polygon fill="#63b8ff" stroke="#63b8ff" points="149,-585.11 159.44,-586.89 152.39,-578.99 149,-585.11"/>
</a>
</g>
</g>
<!-- Node11 -->
<g id="Node000011" class="node">
<title>Node11</title>
<g id="a_Node000011"><a xlink:href="group__wt588e02b__interface__driver.html#gaa105378badd24bf1390ccebb1403154f" target="_top" xlink:title="interface delay ms">
<polygon fill="white" stroke="#666666" points="251.75,-570 145.75,-570 145.75,-538 251.75,-538 251.75,-570"/>
<text xml:space="preserve" text-anchor="start" x="153.75" y="-556.5" font-family="Helvetica,sans-Serif" font-size="10.00">wt588e02b_interface</text>
<text xml:space="preserve" text-anchor="middle" x="198.75" y="-544.5" font-family="Helvetica,sans-Serif" font-size="10.00">_delay_ms</text>
</a>
</g>
</g>
<!-- Node1&#45;&gt;Node11 -->
<g id="edge10_Node000001_Node000011" class="edge">
<title>Node1&#45;&gt;Node11</title>
<g id="a_edge10_Node000001_Node000011"><a xlink:title=" ">
<path fill="none" stroke="#63b8ff" d="M85.62,-514.48C101.44,-520.06 121.46,-527.11 140.18,-533.71"/>
<polygon fill="#63b8ff" stroke="#63b8ff" points="138.99,-537 149.59,-537.03 141.32,-530.4 138.99,-537"/>
</a>
</g>
</g>
<!-- Node12 -->
<g id="Node000012" class="node">
<title>Node12</title>
<g id="a_Node000012"><a xlink:href="group__wt588e02b__interface__driver.html#ga1af96efade6a0267de2f27782fb26f89" target="_top" xlink:title="interface delay us">
<polygon fill="white" stroke="#666666" points="251.75,-520 145.75,-520 145.75,-488 251.75,-488 251.75,-520"/>
<text xml:space="preserve" text-anchor="start" x="153.75" y="-506.5" font-family="Helvetica,sans-Serif" font-size="10.00">wt588e02b_interface</text>
<text xml:space="preserve" text-anchor="middle" x="198.75" y="-494.5" font-family="Helvetica,sans-Serif" font-size="10.00">_delay_us</text>
</a>
</g>
</g>
<!-- Node1&#45;&gt;Node12 -->
<g id="edge11_Node000001_Node000012" class="edge">
<title>Node1&#45;&gt;Node12</title>
<g id="a_edge11_Node000001_Node000012"><a xlink:title=" ">
<path fill="none" stroke="#63b8ff" d="M109.92,-504C117.79,-504 125.97,-504 134.01,-504"/>
<polygon fill="#63b8ff" stroke="#63b8ff" points="133.75,-507.5 143.75,-504 133.75,-500.5 133.75,-507.5"/>
</a>
</g>
</g>
<!-- Node13 -->
<g id="Node000013" class="node">
<title>Node13</title>
<g id="a_Node000013"><a xlink:href="group__wt588e02b__interface__driver.html#ga2e1cbd7ad9c37e58a184a15f233065f9" target="_top" xlink:title="interface miso gpio deinit">
<polygon fill="white" stroke="#666666" points="251.75,-470 145.75,-470 145.75,-438 251.75,-438 251.75,-470"/>
<text xml:space="preserve" text-anchor="start" x="153.75" y="-456.5" font-family="Helvetica,sans-Serif" font-size="10.00">wt588e02b_interface</text>
<text xml:space="preserve" text-anchor="middle" x="198.75" y="-444.5" font-family="Helvetica,sans-Serif" font-size="10.00">_miso_gpio_deinit</text>
</a>
</g>
</g>
<!-- Node1&#45;&gt;Node13 -->
<g id="edge12_Node000001_Node000013" class="edge">
<title>Node1&#45;&gt;Node13</title>
<g id="a_edge12_Node000001_Node000013"><a xlink:title=" ">
<path fill="none" stroke="#63b8ff" d="M85.62,-493.52C101.44,-487.94 121.46,-480.89 140.18,-474.29"/>
<polygon fill="#63b8ff" stroke="#63b8ff" points="141.32,-477.6 149.59,-470.97 138.99,-471 141.32,-477.6"/>
</a>
</g>
</g>
<!-- Node14 -->
<g id="Node000014" class="node">
<title>Node14</title>
<g id="a_Node000014"><a xlink:href="group__wt588e02b__interface__driver.html#ga8916f9eb7f40f6e49e98ecd219cf3c9d" target="_top" xlink:title="interface miso gpio init">
<polygon fill="white" stroke="#666666" points="251.75,-420 145.75,-420 145.75,-388 251.75,-388 251.75,-420"/>
<text xml:space="preserve" text-anchor="start" x="153.75" y="-406.5" font-family="Helvetica,sans-Serif" font-size="10.00">wt588e02b_interface</text>
<text xml:space="preserve" text-anchor="middle" x="198.75" y="-394.5" font-family="Helvetica,sans-Serif" font-size="10.00">_miso_gpio_init</text>
</a>
</g>
</g>
<!-- Node1&#45;&gt;Node14 -->
<g id="edge13_Node000001_Node000014" class="edge">
<title>Node1&#45;&gt;Node14</title>
<g id="a_edge13_Node000001_Node000014"><a xlink:title=" ">
<path fill="none" stroke="#63b8ff" d="M66.53,-493.59C82.7,-478.16 114.82,-448.9 145.75,-429 147.37,-427.96 149.04,-426.93 150.75,-425.92"/>
<polygon fill="#63b8ff" stroke="#63b8ff" points="152.39,-429.01 159.44,-421.11 149,-422.89 152.39,-429.01"/>
</a>
</g>
</g>
<!-- Node15 -->
<g id="Node000015" class="node">
<title>Node15</title>
<g id="a_Node000015"><a xlink:href="group__wt588e02b__interface__driver.html#gaa14773dc6d8b463c315978ee6f50e40b" target="_top" xlink:title="interface miso_gpio_read">
<polygon fill="white" stroke="#666666" points="251.75,-370 145.75,-370 145.75,-338 251.75,-338 251.75,-370"/>
<text xml:space="preserve" text-anchor="start" x="153.75" y="-356.5" font-family="Helvetica,sans-Serif" font-size="10.00">wt588e02b_interface</text>
<text xml:space="preserve" text-anchor="middle" x="198.75" y="-344.5" font-family="Helvetica,sans-Serif" font-size="10.00">_miso_gpio_read</text>
</a>
</g>
</g>
<!-- Node1&#45;&gt;Node15 -->
<g id="edge14_Node000001_Node000015" class="edge">
<title>Node1&#45;&gt;Node15</title>
<g id="a_edge14_Node000001_Node000015"><a xlink:title=" ">
<path fill="none" stroke="#63b8ff" d="M61.02,-493.6C72.97,-470.32 104.79,-413.35 145.75,-379 146.69,-378.21 147.66,-377.44 148.65,-376.69"/>
<polygon fill="#63b8ff" stroke="#63b8ff" points="150.45,-379.7 156.85,-371.25 146.58,-373.86 150.45,-379.7"/>
</a>
</g>
</g>
<!-- Node16 -->
<g id="Node000016" class="node">
<title>Node16</title>
<g id="a_Node000016"><a xlink:href="group__wt588e02b__interface__driver.html#ga9a288f41dc2743f6c11d41abeffbd4c1" target="_top" xlink:title="interface mosi gpio deinit">
<polygon fill="white" stroke="#666666" points="251.75,-320 145.75,-320 145.75,-288 251.75,-288 251.75,-320"/>
<text xml:space="preserve" text-anchor="start" x="153.75" y="-306.5" font-family="Helvetica,sans-Serif" font-size="10.00">wt588e02b_interface</text>
<text xml:space="preserve" text-anchor="middle" x="198.75" y="-294.5" font-family="Helvetica,sans-Serif" font-size="10.00">_mosi_gpio_deinit</text>
</a>
</g>
</g>
<!-- Node1&#45;&gt;Node16 -->
<g id="edge15_Node000001_Node000016" class="edge">
<title>Node1&#45;&gt;Node16</title>
<g id="a_edge15_Node000001_Node000016"><a xlink:title=" ">
<path fill="none" stroke="#63b8ff" d="M58.68,-493.51C67.07,-463.93 94.62,-378.81 145.75,-329 146.37,-328.4 147.01,-327.81 147.66,-327.23"/>
<polygon fill="#63b8ff" stroke="#63b8ff" points="149.71,-330.07 155.63,-321.28 145.52,-324.45 149.71,-330.07"/>
</a>
</g>
</g>
<!-- Node17 -->
<g id="Node000017" class="node">
<title>Node17</title>
<g id="a_Node000017"><a xlink:href="group__wt588e02b__interface__driver.html#ga982dc54f1abe52df4700d9c0873951ba" target="_top" xlink:title="interface mosi gpio init">
<polygon fill="white" stroke="#666666" points="251.75,-270 145.75,-270 145.75,-238 251.75,-238 251.75,-270"/>
<text xml:space="preserve" text-anchor="start" x="153.75" y="-256.5" font-family="Helvetica,sans-Serif" font-size="10.00">wt588e02b_interface</text>
<text xml:space="preserve" text-anchor="middle" x="198.75" y="-244.5" font-family="Helvetica,sans-Serif" font-size="10.00">_mosi_gpio_init</text>
</a>
</g>
</g>
<!-- Node1&#45;&gt;Node17 -->
<g id="edge16_Node000001_Node000017" class="edge">
<title>Node1&#45;&gt;Node17</title>
<g id="a_edge16_Node000001_Node000017"><a xlink:title=" ">
<path fill="none" stroke="#63b8ff" d="M57.3,-493.62C62.58,-458.87 84.02,-345.09 145.75,-279 146.22,-278.5 146.7,-278 147.2,-277.52"/>
<polygon fill="#63b8ff" stroke="#63b8ff" points="149.25,-280.36 154.84,-271.36 144.86,-274.91 149.25,-280.36"/>
</a>
</g>
</g>
<!-- Node18 -->
<g id="Node000018" class="node">
<title>Node18</title>
<g id="a_Node000018"><a xlink:href="group__wt588e02b__interface__driver.html#gac4690caee07d3577530878970815e337" target="_top" xlink:title="interface mosi gpio write">
<polygon fill="white" stroke="#666666" points="251.75,-220 145.75,-220 145.75,-188 251.75,-188 251.75,-220"/>
<text xml:space="preserve" text-anchor="start" x="153.75" y="-206.5" font-family="Helvetica,sans-Serif" font-size="10.00">wt588e02b_interface</text>
<text xml:space="preserve" text-anchor="middle" x="198.75" y="-194.5" font-family="Helvetica,sans-Serif" font-size="10.00">_mosi_gpio_write</text>
</a>
</g>
</g>
<!-- Node1&#45;&gt;Node18 -->
<g id="edge17_Node000001_Node000018" class="edge">
<title>Node1&#45;&gt;Node18</title>
<g id="a_edge17_Node000001_Node000018"><a xlink:title=" ">
<path fill="none" stroke="#63b8ff" d="M56.42,-493.61C59.03,-454.17 73.28,-311.75 145.75,-229 146.1,-228.59 146.47,-228.2 146.84,-227.8"/>
<polygon fill="#63b8ff" stroke="#63b8ff" points="149.05,-230.52 154.4,-221.37 144.51,-225.18 149.05,-230.52"/>
</a>
</g>
</g>
<!-- Node19 -->
<g id="Node000019" class="node">
<title>Node19</title>
<g id="a_Node000019"><a xlink:href="group__wt588e02b__interface__driver.html#ga4ec5dbb40b55530fd7f192d6aab53746" target="_top" xlink:title="interface sclk gpio deinit">
<polygon fill="white" stroke="#666666" points="251.75,-170 145.75,-170 145.75,-138 251.75,-138 251.75,-170"/>
<text xml:space="preserve" text-anchor="start" x="153.75" y="-156.5" font-family="Helvetica,sans-Serif" font-size="10.00">wt588e02b_interface</text>
<text xml:space="preserve" text-anchor="middle" x="198.75" y="-144.5" font-family="Helvetica,sans-Serif" font-size="10.00">_sclk_gpio_deinit</text>
</a>
</g>
</g>
<!-- Node1&#45;&gt;Node19 -->
<g id="edge18_Node000001_Node000019" class="edge">
<title>Node1&#45;&gt;Node19</title>
<g id="a_edge18_Node000001_Node000019"><a xlink:title=" ">
<path fill="none" stroke="#63b8ff" d="M55.8,-493.6C56.02,-449.89 62.4,-278.72 145.75,-179 146.09,-178.6 146.43,-178.2 146.79,-177.81"/>
<polygon fill="#63b8ff" stroke="#63b8ff" points="148.83,-180.68 154.01,-171.44 144.2,-175.42 148.83,-180.68"/>
</a>
</g>
</g>
<!-- Node20 -->
<g id="Node000020" class="node">
<title>Node20</title>
<g id="a_Node000020"><a xlink:href="group__wt588e02b__interface__driver.html#ga1ef8f7b14a02815656e2f671aaa58552" target="_top" xlink:title="interface sclk gpio init">
<polygon fill="white" stroke="#666666" points="251.75,-120 145.75,-120 145.75,-88 251.75,-88 251.75,-120"/>
<text xml:space="preserve" text-anchor="start" x="153.75" y="-106.5" font-family="Helvetica,sans-Serif" font-size="10.00">wt588e02b_interface</text>
<text xml:space="preserve" text-anchor="middle" x="198.75" y="-94.5" font-family="Helvetica,sans-Serif" font-size="10.00">_sclk_gpio_init</text>
</a>
</g>
</g>
<!-- Node1&#45;&gt;Node20 -->
<g id="edge19_Node000001_Node000020" class="edge">
<title>Node1&#45;&gt;Node20</title>
<g id="a_edge19_Node000001_Node000020"><a xlink:title=" ">
<path fill="none" stroke="#63b8ff" d="M57.15,-493.65C63.98,-439.45 97.82,-188.4 145.75,-129 146.08,-128.59 146.42,-128.19 146.77,-127.79"/>
<polygon fill="#63b8ff" stroke="#63b8ff" points="148.82,-130.65 153.9,-121.35 144.13,-125.45 148.82,-130.65"/>
</a>
</g>
</g>
<!-- Node21 -->
<g id="Node000021" class="node">
<title>Node21</title>
<g id="a_Node000021"><a xlink:href="group__wt588e02b__interface__driver.html#ga908ad368f1ec0f2c91d9089dab3052d1" target="_top" xlink:title="interface sclk gpio write">
<polygon fill="white" stroke="#666666" points="251.75,-70 145.75,-70 145.75,-38 251.75,-38 251.75,-70"/>
<text xml:space="preserve" text-anchor="start" x="153.75" y="-56.5" font-family="Helvetica,sans-Serif" font-size="10.00">wt588e02b_interface</text>
<text xml:space="preserve" text-anchor="middle" x="198.75" y="-44.5" font-family="Helvetica,sans-Serif" font-size="10.00">_sclk_gpio_write</text>
</a>
</g>
</g>
<!-- Node1&#45;&gt;Node21 -->
<g id="edge20_Node000001_Node000021" class="edge">
<title>Node1&#45;&gt;Node21</title>
<g id="a_edge20_Node000001_Node000021"><a xlink:title=" ">
<path fill="none" stroke="#63b8ff" d="M56.81,-493.85C62.33,-435.91 92.2,-147.22 145.75,-79 145.99,-78.69 146.24,-78.38 146.49,-78.08"/>
<polygon fill="#63b8ff" stroke="#63b8ff" points="148.87,-80.66 153.83,-71.29 144.11,-75.52 148.87,-80.66"/>
</a>
</g>
</g>
<!-- Node22 -->
<g id="Node000022" class="node">
<title>Node22</title>
<g id="a_Node000022"><a xlink:href="group__wt588e02b__basic__driver.html#gaafdcda1646c3f4b62d785b8498b85482" target="_top" xlink:title="set the volume">
<polygon fill="white" stroke="#666666" points="248.75,-20 148.75,-20 148.75,0 248.75,0 248.75,-20"/>
<text xml:space="preserve" text-anchor="middle" x="198.75" y="-6.5" font-family="Helvetica,sans-Serif" font-size="10.00">wt588e02b_set_vol</text>
</a>
</g>
</g>
<!-- Node1&#45;&gt;Node22 -->
<g id="edge21_Node000001_Node000022" class="edge">
<title>Node1&#45;&gt;Node22</title>
<g id="a_edge21_Node000001_Node000022"><a xlink:title=" ">
<path fill="none" stroke="#63b8ff" d="M56.46,-493.82C60.22,-431.61 82.89,-103.07 145.75,-29 146.31,-28.34 146.89,-27.7 147.5,-27.09"/>
<polygon fill="#63b8ff" stroke="#63b8ff" points="149.41,-30.03 155.26,-21.2 145.18,-24.46 149.41,-30.03"/>
</a>
</g>
</g>
</g>
</svg>
