<?xml version="1.0" encoding="UTF-8" standalone="no"?>
<!DOCTYPE svg PUBLIC "-//W3C//DTD SVG 1.1//EN"
 "http://www.w3.org/Graphics/SVG/1.1/DTD/svg11.dtd">
<!-- Generated by graphviz version 13.1.0 (20250701.0955)
 -->
<!-- Title: wt588e02b_basic_play_loop_all Pages: 1 -->
<svg width="284pt" height="116pt"
 viewBox="0.00 0.00 284.00 116.00" xmlns="http://www.w3.org/2000/svg" xmlns:xlink="http://www.w3.org/1999/xlink">
<g id="graph0" class="graph" transform="scale(1 1) rotate(0) translate(4 112)">
<title>wt588e02b_basic_play_loop_all</title>
<!-- Node1 -->
<g id="Node000001" class="node">
<title>Node1</title>
<g id="a_Node000001"><a xlink:title="basic example play loop all">
<polygon fill="#999999" stroke="#666666" points="115,-64 0,-64 0,-32 115,-32 115,-64"/>
<text xml:space="preserve" text-anchor="start" x="8" y="-50.5" font-family="Helvetica,sans-Serif" font-size="10.00">wt588e02b_basic_play</text>
<text xml:space="preserve" text-anchor="middle" x="57.5" y="-38.5" font-family="Helvetica,sans-Serif" font-size="10.00">_loop_all</text>
</a>
</g>
</g>
<!-- Node2 -->
<g id="Node000002" class="node">
<title>Node2</title>
<g id="a_Node000002"><a xlink:href="group__wt588e02b__interface__driver.html#gaa105378badd24bf1390ccebb1403154f" target="_top" xlink:title="interface delay ms">
<polygon fill="white" stroke="#666666" points="266.38,-108 160.38,-108 160.38,-76 266.38,-76 266.38,-108"/>
<text xml:space="preserve" text-anchor="start" x="168.38" y="-94.5" font-family="Helvetica,sans-Serif" font-size="10.00">wt588e02b_interface</text>
<text xml:space="preserve" text-anchor="middle" x="213.38" y="-82.5" font-family="Helvetica,sans-Serif" font-size="10.00">_delay_ms</text>
</a>
</g>
</g>
<!-- Node1&#45;&gt;Node2 -->
<g id="edge1_Node000001_Node000002" class="edge">
<title>Node1&#45;&gt;Node2</title>
<g id="a_edge1_Node000001_Node000002"><a xlink:title=" ">
<path fill="none" stroke="#63b8ff" d="M115.36,-64.26C126.34,-67.4 137.91,-70.71 149.08,-73.9"/>
<polygon fill="#63b8ff" stroke="#63b8ff" points="148.05,-77.25 158.62,-76.63 149.97,-70.52 148.05,-77.25"/>
</a>
</g>
</g>
<!-- Node3 -->
<g id="Node000003" class="node">
<title>Node3</title>
<g id="a_Node000003"><a xlink:href="group__wt588e02b__basic__driver.html#gad5dbcec4d6c482fe7106aac37fbfb3ff" target="_top" xlink:title="play loop all">
<polygon fill="white" stroke="#666666" points="275.75,-58 151,-58 151,-38 275.75,-38 275.75,-58"/>
<text xml:space="preserve" text-anchor="middle" x="213.38" y="-44.5" font-family="Helvetica,sans-Serif" font-size="10.00">wt588e02b_play_loop_all</text>
</a>
</g>
</g>
<!-- Node1&#45;&gt;Node3 -->
<g id="edge2_Node000001_Node000003" class="edge">
<title>Node1&#45;&gt;Node3</title>
<g id="a_edge2_Node000001_Node000003"><a xlink:title=" ">
<path fill="none" stroke="#63b8ff" d="M115.36,-48C123.16,-48 131.25,-48 139.29,-48"/>
<polygon fill="#63b8ff" stroke="#63b8ff" points="139.06,-51.5 149.06,-48 139.06,-44.5 139.06,-51.5"/>
</a>
</g>
</g>
<!-- Node4 -->
<g id="Node000004" class="node">
<title>Node4</title>
<g id="a_Node000004"><a xlink:href="group__wt588e02b__basic__driver.html#gaffabdd094b93315233aad0d43fb1647e" target="_top" xlink:title="stop audio">
<polygon fill="white" stroke="#666666" points="257,-20 169.75,-20 169.75,0 257,0 257,-20"/>
<text xml:space="preserve" text-anchor="middle" x="213.38" y="-6.5" font-family="Helvetica,sans-Serif" font-size="10.00">wt588e02b_stop</text>
</a>
</g>
</g>
<!-- Node1&#45;&gt;Node4 -->
<g id="edge3_Node000001_Node000004" class="edge">
<title>Node1&#45;&gt;Node4</title>
<g id="a_edge3_Node000001_Node000004"><a xlink:title=" ">
<path fill="none" stroke="#63b8ff" d="M115.36,-33.96C129.68,-30.42 145,-26.64 159.14,-23.15"/>
<polygon fill="#63b8ff" stroke="#63b8ff" points="159.84,-26.58 168.71,-20.78 158.16,-19.78 159.84,-26.58"/>
</a>
</g>
</g>
</g>
</svg>
