<?xml version="1.0" encoding="UTF-8" standalone="no"?>
<!DOCTYPE svg PUBLIC "-//W3C//DTD SVG 1.1//EN"
 "http://www.w3.org/Graphics/SVG/1.1/DTD/svg11.dtd">
<!-- Generated by graphviz version 13.1.0 (20250701.0955)
 -->
<!-- Title: wt588e02b driver function Pages: 1 -->
<svg width="302pt" height="290pt"
 viewBox="0.00 0.00 302.00 290.00" xmlns="http://www.w3.org/2000/svg" xmlns:xlink="http://www.w3.org/1999/xlink">
<g id="graph0" class="graph" transform="scale(1 1) rotate(0) translate(4 286)">
<title>wt588e02b driver function</title>
<!-- Node3 -->
<g id="Node000003" class="node">
<title>Node3</title>
<g id="a_Node000003"><a xlink:href="group__wt588e02b__basic__driver.html" target="_top" xlink:title="wt588e02b basic driver modules">
<polygon fill="white" stroke="#666666" points="287,-282 170.5,-282 170.5,-250 287,-250 287,-282"/>
<text xml:space="preserve" text-anchor="start" x="178.5" y="-268.5" font-family="Helvetica,sans-Serif" font-size="10.00">wt588e02b basic driver</text>
<text xml:space="preserve" text-anchor="middle" x="228.75" y="-256.5" font-family="Helvetica,sans-Serif" font-size="10.00"> function</text>
</a>
</g>
</g>
<!-- Node1 -->
<g id="Node000001" class="node">
<title>Node1</title>
<g id="a_Node000001"><a xlink:title="wt588e02b driver modules">
<polygon fill="#999999" stroke="#666666" points="127.75,-151 0,-151 0,-131 127.75,-131 127.75,-151"/>
<text xml:space="preserve" text-anchor="middle" x="63.88" y="-137.5" font-family="Helvetica,sans-Serif" font-size="10.00">wt588e02b driver function</text>
</a>
</g>
</g>
<!-- Node1&#45;&gt;Node3 -->
<g id="edge2" class="edge">
<title>Node1&#45;&gt;Node3</title>
<path fill="none" stroke="black" d="M79.71,-160.29C97.56,-182.39 129.46,-218.45 163.75,-241 168.53,-244.15 173.77,-246.99 179.13,-249.54"/>
<polygon fill="black" stroke="black" points="82.63,-158.34 73.68,-152.67 77.14,-162.68 82.63,-158.34"/>
</g>
<!-- Node6 -->
<g id="Node000006" class="node">
<title>Node6</title>
<g id="a_Node000006"><a xlink:href="group__wt588e02b__example__driver.html" target="_top" xlink:title="wt588e02b example driver modules">
<polygon fill="white" stroke="#666666" points="293.75,-232 163.75,-232 163.75,-200 293.75,-200 293.75,-232"/>
<text xml:space="preserve" text-anchor="start" x="171.75" y="-218.5" font-family="Helvetica,sans-Serif" font-size="10.00">wt588e02b example driver</text>
<text xml:space="preserve" text-anchor="middle" x="228.75" y="-206.5" font-family="Helvetica,sans-Serif" font-size="10.00"> function</text>
</a>
</g>
</g>
<!-- Node1&#45;&gt;Node6 -->
<g id="edge5" class="edge">
<title>Node1&#45;&gt;Node6</title>
<path fill="none" stroke="black" d="M94.01,-156.66C113.51,-166.91 139.89,-180.34 163.75,-191 170.28,-193.92 177.27,-196.85 184.14,-199.61"/>
<polygon fill="black" stroke="black" points="95.75,-153.62 85.27,-152.03 92.47,-159.81 95.75,-153.62"/>
</g>
<!-- Node4 -->
<g id="Node000004" class="node">
<title>Node4</title>
<g id="a_Node000004"><a xlink:href="group__wt588e02b__extern__driver.html" target="_top" xlink:title="wt588e02b extern driver modules">
<polygon fill="white" stroke="#666666" points="288.88,-182 168.62,-182 168.62,-150 288.88,-150 288.88,-182"/>
<text xml:space="preserve" text-anchor="start" x="176.62" y="-168.5" font-family="Helvetica,sans-Serif" font-size="10.00">wt588e02b extern driver</text>
<text xml:space="preserve" text-anchor="middle" x="228.75" y="-156.5" font-family="Helvetica,sans-Serif" font-size="10.00"> function</text>
</a>
</g>
</g>
<!-- Node1&#45;&gt;Node4 -->
<g id="edge3" class="edge">
<title>Node1&#45;&gt;Node4</title>
<path fill="none" stroke="black" d="M139.16,-152.4C148.87,-153.89 158.72,-155.4 168.15,-156.85"/>
<polygon fill="black" stroke="black" points="139.76,-148.95 129.34,-150.9 138.7,-155.87 139.76,-148.95"/>
</g>
<!-- Node5 -->
<g id="Node000005" class="node">
<title>Node5</title>
<g id="a_Node000005"><a xlink:href="group__wt588e02b__interface__driver.html" target="_top" xlink:title="wt588e02b interface driver modules">
<polygon fill="white" stroke="#666666" points="280.62,-132 176.88,-132 176.88,-100 280.62,-100 280.62,-132"/>
<text xml:space="preserve" text-anchor="start" x="184.88" y="-118.5" font-family="Helvetica,sans-Serif" font-size="10.00">wt588e02b interface</text>
<text xml:space="preserve" text-anchor="middle" x="228.75" y="-106.5" font-family="Helvetica,sans-Serif" font-size="10.00"> driver function</text>
</a>
</g>
</g>
<!-- Node1&#45;&gt;Node5 -->
<g id="edge4" class="edge">
<title>Node1&#45;&gt;Node5</title>
<path fill="none" stroke="black" d="M138.92,-129.63C151.64,-127.68 164.59,-125.69 176.53,-123.86"/>
<polygon fill="black" stroke="black" points="138.7,-126.13 129.34,-131.1 139.76,-133.05 138.7,-126.13"/>
</g>
<!-- Node2 -->
<g id="Node000002" class="node">
<title>Node2</title>
<g id="a_Node000002"><a xlink:href="group__wt588e02b__link__driver.html" target="_top" xlink:title="wt588e02b link driver modules">
<polygon fill="white" stroke="#666666" points="282.88,-82 174.62,-82 174.62,-50 282.88,-50 282.88,-82"/>
<text xml:space="preserve" text-anchor="start" x="182.62" y="-68.5" font-family="Helvetica,sans-Serif" font-size="10.00">wt588e02b link driver</text>
<text xml:space="preserve" text-anchor="middle" x="228.75" y="-56.5" font-family="Helvetica,sans-Serif" font-size="10.00"> function</text>
</a>
</g>
</g>
<!-- Node1&#45;&gt;Node2 -->
<g id="edge1" class="edge">
<title>Node1&#45;&gt;Node2</title>
<path fill="none" stroke="black" d="M94.01,-125.34C113.51,-115.09 139.89,-101.66 163.75,-91 170.28,-88.08 177.27,-85.15 184.14,-82.39"/>
<polygon fill="black" stroke="black" points="92.47,-122.19 85.27,-129.97 95.75,-128.38 92.47,-122.19"/>
</g>
<!-- Node7 -->
<g id="Node000007" class="node">
<title>Node7</title>
<g id="a_Node000007"><a xlink:href="group__wt588e02b__test__driver.html" target="_top" xlink:title="wt588e02b test driver modules">
<polygon fill="white" stroke="#666666" points="283.62,-32 173.88,-32 173.88,0 283.62,0 283.62,-32"/>
<text xml:space="preserve" text-anchor="start" x="181.88" y="-18.5" font-family="Helvetica,sans-Serif" font-size="10.00">wt588e02b test driver</text>
<text xml:space="preserve" text-anchor="middle" x="228.75" y="-6.5" font-family="Helvetica,sans-Serif" font-size="10.00"> function</text>
</a>
</g>
</g>
<!-- Node1&#45;&gt;Node7 -->
<g id="edge6" class="edge">
<title>Node1&#45;&gt;Node7</title>
<path fill="none" stroke="black" d="M79.71,-121.71C97.56,-99.61 129.46,-63.55 163.75,-41 168.53,-37.85 173.77,-35.01 179.13,-32.46"/>
<polygon fill="black" stroke="black" points="77.14,-119.32 73.68,-129.33 82.63,-123.66 77.14,-119.32"/>
</g>
</g>
</svg>
